<svg width="88" height="88" xmlns="http://www.w3.org/2000/svg">
 <!-- Generator: Sketch 44.1 (41455) - http://www.bohemiancoding.com/sketch -->
 <title>erpnext-logo</title>
 <desc>Created with Sketch.</desc>
 <defs>
  <filter height="200%" width="200%" y="-50%" x="-50%" id="svg_28_blur">
   <feGaussianBlur stdDeviation="0" in="SourceGraphic"/>
  </filter>
 </defs>
 <g>
  <title>background</title>
  <rect fill="none" id="canvas_background" height="402" width="582" y="-1" x="-1"/>
 </g>
 <g>
  <title>Layer 1</title>
  <g fill-rule="evenodd" fill="none" id="Page-1">
   <g fill-rule="nonzero" id="erpnext-logo">
    <g fill="#5E64FF" id="g1422-7-2">
     <g id="g1418-4-6">
      <g id="g1416-4-9">
       <path id="path1414-3-4" d="m13.229205,0.000001l60.85414,0c7.32899,0 13.22918,5.9002 13.22918,13.22916l0,60.85418c0,7.32895 -5.90019,13.22916 -13.22918,13.22916l-60.85414,0c-7.32889,0 -13.22918,-5.90021 -13.22918,-13.22916l0,-60.85418c0,-7.32896 5.90029,-13.22916 13.22918,-13.22916l0,0z"/>
      </g>
     </g>
    </g>
    <g fill="#FFFFFF" id="g1444-6-7">
     <path id="rect1436-8-4" d="m29.777666,21.827969c-0.27484,0 -0.54268,0.02792 -0.8015,0.08061c-0.25884,0.05269 -0.50866,0.13033 -0.7462,0.23048c-0.1188,0.05007 -0.23426,0.10596 -0.34676,0.16691c-0.22498,0.12191 -0.43667,0.26483 -0.63252,0.42633c-0.88138,0.72678 -1.44177,1.82765 -1.44177,3.06442l0,0.24184l0,35.23557l0,0.24135c0,2.19869 1.77007,3.96875 3.96875,3.96875l27.75697,0c2.19868,0 3.96875,-1.77006 3.96875,-3.96875l0,-0.24135c0,-2.19869 -1.77007,-3.96875 -3.96875,-3.96875l-23.54639,0l0,-9.88518l17.50746,0c2.19868,0 3.96875,-1.77006 3.96875,-3.96875l0,-0.24133c0,-2.19869 -1.77007,-3.96875 -3.96875,-3.96875l-17.50746,0l0,-9.23406l23.54639,0c2.19868,0 3.96875,-1.77006 3.96875,-3.96875l0,-0.24184c0,-2.19869 -1.77007,-3.96875 -3.96875,-3.96875l-27.75697,0z"/>
    </g>
   </g>
  </g>
  <path d="m31.631599,9.71056l0,0" transform="rotate(5.484683356371534e-7 NaN,9.710559828009234) "/>
  <polyline stroke-linecap="round" id="svg_12" points="37.421067146819155,25.500018233869895 37.421067146819155,25.500018233869895 " fill-opacity="null" stroke-opacity="0" stroke-width="1.5" stroke="#000000" fill="none"/>
  <polyline stroke-linecap="round" id="svg_13" points="47.42105729067328,24.44738769241158 47.42105729067328,24.44738769241158 " fill-opacity="null" stroke-opacity="0" stroke-width="1.5" stroke="#000000" fill="none"/>
  <polyline stroke-linecap="round" id="svg_14" points="64.26314595400646,17.60528917293246 64.26314595400646,17.60528917293246 " fill-opacity="null" stroke-opacity="0" stroke-width="1.5" stroke="#000000" fill="none"/>
  <polyline stroke-linecap="round" id="svg_15" points="39.52632822973578,27.078964046057393 39.52632822973578,27.078964046057393 " fill-opacity="null" stroke-opacity="0" stroke-width="1.5" stroke="#000000" fill="none"/>
  <polyline stroke-linecap="round" id="svg_19" points="36.89475187608997,26.02633350459908 36.89475187608997,26.02633350459908 36.89475187608997,26.02633350459908 " fill-opacity="null" stroke-opacity="0" stroke-width="1.5" stroke="#000000" fill="none"/>
  <polyline stroke-linecap="round" id="svg_20" points="45.3157958984375,26.02633285522461 45.3157958984375,26.02633285522461 " stroke-width="1.5" fill="white"/>
  <polyline stroke-linecap="round" id="svg_22" points="33.73686025171503,30.236855670432362 33.73686025171503,30.236855670432362 " stroke-width="1.5" fill="none"/>
  <rect stroke="null" id="svg_26" height="87.894649" width="88.420964" y="0.236882" x="-0.473633" stroke-opacity="null" stroke-width="0" fill="#007fff"/>
  <text filter="url(#svg_28_blur)" font-weight="bold" stroke="null" transform="matrix(1.9068167618379028,0,0,2.225635839832921,-21.6451795033161,-7.942740627452881) " xml:space="preserve" text-anchor="start" font-family="Helvetica, Arial, sans-serif" font-size="30" id="svg_28" y="33.737942" x="12.684249" stroke-opacity="null" stroke-width="0" fill="#fcfcfc">BH</text>
 </g>
</svg>